<svg xmlns="http://www.w3.org/2000/svg" viewBox="0 0 232 63" enable-background="new 0 0 232 63"><g fill-rule="evenodd"><g fill="#24336a"><path d="m.377 31.827l10.252-23.18c.715-1.599 2.02-2.566 3.781-2.566h.38c1.764 0 3.02.967 3.739 2.566l10.252 23.18c.211.461.339.882.339 1.306 0 1.725-1.347 3.112-3.071 3.112-1.512 0-2.519-.882-3.107-2.231l-1.974-4.625h-12.945l-2.057 4.838c-.546 1.26-1.637 2.02-2.983 2.02-1.679-.0001-2.983-1.348-2.983-3.03 0-.463.167-.929.377-1.39m18.19-8.16l-4.075-9.719-4.074 9.719h8.149"/><path d="m32.06 9.615c0-1.809 1.429-3.238 3.236-3.238h.712c1.39 0 2.356.715 2.942 1.681l7.816 12.747 7.857-12.789c.674-1.094 1.598-1.639 2.899-1.639h.714c1.807 0 3.235 1.429 3.235 3.238v23.392c0 1.807-1.429 3.238-3.236 3.238-1.761 0-3.194-1.474-3.194-3.238v-14.684l-5.671 8.751c-.675 1.01-1.512 1.639-2.688 1.639-1.178 0-2.02-.631-2.688-1.639l-5.59-8.625v14.64c0 1.768-1.429 3.155-3.193 3.155-1.766 0-3.152-1.388-3.152-3.155v-23.474h.0001"/><path d="m111.31 9.615c0-1.809 1.43-3.238 3.237-3.238h.711c1.389 0 2.354.715 2.942 1.681l7.816 12.747 7.857-12.789c.674-1.094 1.596-1.639 2.898-1.639h.715c1.807 0 3.236 1.429 3.236 3.238v23.392c0 1.807-1.43 3.238-3.237 3.238-1.762 0-3.193-1.474-3.193-3.238v-14.684l-5.673 8.751c-.673 1.01-1.511 1.639-2.687 1.639-1.178 0-2.02-.631-2.689-1.639l-5.59-8.625v14.64c0 1.768-1.428 3.155-3.192 3.155-1.766 0-3.153-1.388-3.153-3.155l.002-23.474"/><path d="m144.08 31.827l10.252-23.18c.715-1.599 2.02-2.566 3.781-2.566h.38c1.764 0 3.02.967 3.738 2.566l10.252 23.18c.212.461.34.882.34 1.306 0 1.725-1.349 3.112-3.072 3.112-1.511 0-2.518-.882-3.106-2.231l-1.976-4.625h-12.943l-2.056 4.838c-.547 1.26-1.639 2.02-2.985 2.02-1.679 0-2.981-1.347-2.981-3.03-.0001-.464.166-.93.376-1.391m18.19-8.16l-4.073-9.719-4.077 9.719h8.15"/><path d="m86.44 0c-11.584 0-20.974 9.402-20.974 21 0 11.6 9.391 21 20.975 21 11.584.0001 20.974-9.4 20.974-21 0-11.598-9.391-21-20.975-21m0 35.29c-7.88 0-14.268-6.396-14.268-14.286s6.388-14.285 14.268-14.285c7.879 0 14.267 6.396 14.267 14.285s-6.388 14.284-14.267 14.286"/></g><path fill="#f7921e" d="m95.53 17.594c-.38-.834-1.245-1.381-2.226-1.294-1.224.111-2.134 1.197-2.025 2.424.016.182.054.356.108.521.013.04.02.066.022.088.209.572.33 1.188.33 1.831 0 2.94-2.389 5.331-5.326 5.331-.611.0001-1.199-.109-1.746-.3.005.004.017.011.012.007-.163-.072-.335-.126-.513-.157-1.221-.222-2.393.61-2.609 1.81-.108.592.021 1.188.362 1.682.209.304.487.541.803.706 1.141.468 2.386.73 3.692.73 5.402 0 9.798-4.402 9.798-9.81 0-1.26-.248-2.461-.682-3.569"/></g><g fill="#f7921e"><path d="m176.13 34.04v.048c.006.391.097.742.278 1.047.182.311.426.551.74.733.317.177.676.269 1.081.274.405-.006.765-.098 1.081-.274.314-.183.559-.423.74-.733.181-.305.273-.656.277-1.047v-.048c-.004-.39-.097-.74-.277-1.046-.182-.311-.426-.553-.74-.734-.316-.176-.676-.268-1.081-.273-.405.005-.764.097-1.081.273-.314.182-.559.424-.74.734-.181.306-.272.656-.278 1.046"/><path d="m188.94 36.29c.701-.003 1.333-.072 1.888-.211s1.055-.331 1.496-.582c.438-.248.841-.539 1.198-.873.161-.144.285-.313.382-.506.098-.193.144-.412.15-.652-.007-.295-.073-.555-.211-.793-.133-.238-.317-.422-.546-.564-.233-.136-.496-.209-.789-.213-.22.004-.414.043-.586.117-.169.068-.307.145-.402.221-.346.282-.716.498-1.105.656-.395.157-.829.233-1.307.236-.503-.003-.953-.095-1.359-.281-.402-.182-.748-.434-1.033-.76-.284-.33-.507-.708-.658-1.14-.154-.431-.229-.894-.229-1.393v-.048c0-.479.079-.935.231-1.357.154-.423.367-.797.647-1.124.278-.325.612-.578.994-.765.382-.184.799-.276 1.263-.281.478 0 .896.076 1.261.221.366.141.708.341 1.03.599.107.089.254.169.431.247.18.072.39.113.631.116.31-.003.587-.075.84-.222.249-.144.445-.341.596-.587.148-.246.224-.524.229-.833-.006-.21-.038-.4-.097-.564-.061-.166-.137-.306-.225-.422-.089-.114-.174-.206-.258-.27-.54-.463-1.166-.818-1.882-1.07-.72-.251-1.564-.376-2.533-.379-.993.008-1.902.184-2.729.531-.824.351-1.54.833-2.144 1.453-.604.616-1.073 1.332-1.402 2.141-.331.814-.499 1.685-.503 2.613v.048c.004.93.172 1.799.507 2.605.33.805.799 1.514 1.402 2.125s1.315 1.09 2.131 1.433c.817.348 1.714.522 2.691.528"/><path d="m202.59 36.29c1.013-.006 1.946-.18 2.798-.531.853-.344 1.593-.828 2.223-1.445.631-.615 1.118-1.326 1.469-2.139.349-.811.525-1.688.531-2.623v-.048c-.006-.938-.183-1.807-.528-2.617-.346-.804-.832-1.514-1.455-2.125-.627-.608-1.362-1.083-2.211-1.425-.845-.343-1.773-.521-2.777-.523-1.013.003-1.947.18-2.794.531-.854.347-1.597.826-2.228 1.441-.632.614-1.119 1.333-1.469 2.146-.349.808-.526 1.682-.53 2.62v.048c.004.935.182 1.807.528 2.613.344.809.83 1.518 1.458 2.125.623.611 1.358 1.088 2.207 1.429.844.343 1.772.52 2.778.523m.049-3.164c-.508-.003-.97-.1-1.389-.289-.413-.189-.771-.45-1.072-.781-.302-.333-.531-.711-.695-1.138-.161-.431-.245-.886-.245-1.366v-.048c0-.479.076-.935.229-1.357.153-.423.369-.797.66-1.124.287-.325.642-.578 1.052-.765.416-.184.885-.276 1.412-.281.511.005.968.1 1.387.289.414.19.772.452 1.073.782.302.329.531.711.695 1.139.161.431.246.887.246 1.365v.048c0 .479-.076.935-.229 1.357-.147.424-.37.797-.661 1.124-.287.325-.638.58-1.052.764-.415.186-.885.278-1.411.281"/><path d="m212.27 34.31c.005.341.09.651.25.926.165.278.382.496.659.659.274.164.583.246.925.252.342-.006.652-.088.925-.252.278-.163.494-.381.659-.659.161-.274.244-.585.249-.926v-5.531c.009-.871.205-1.525.596-1.969.39-.443.93-.664 1.625-.664.69 0 1.221.221 1.587.664.37.443.556 1.098.561 1.969v5.531c.003.341.088.651.247.926.166.278.383.496.66.659.273.164.583.246.925.252.342-.006.65-.088.924-.252.278-.163.495-.381.661-.659.159-.274.245-.585.248-.926v-5.531c.009-.871.205-1.525.595-1.969.39-.443.93-.664 1.624-.664.692 0 1.223.221 1.589.664.369.443.555 1.098.559 1.969v5.531c.005.341.088.651.25.926.164.278.382.496.658.659.273.164.583.246.925.252.343-.006.651-.088.925-.252.277-.163.496-.381.659-.659.163-.274.246-.585.25-.926v-6.74c-.004-1.038-.177-1.912-.526-2.62-.346-.704-.846-1.235-1.497-1.598-.649-.359-1.431-.539-2.342-.539-.877.003-1.662.177-2.357.527-.695.351-1.326.858-1.89 1.525-.342-.656-.819-1.164-1.438-1.518-.619-.355-1.355-.532-2.204-.535-.614.003-1.157.104-1.623.298-.472.194-.882.442-1.238.758-.354.312-.673.655-.95 1.021v-.145c-.005-.341-.088-.652-.249-.926-.165-.276-.381-.495-.659-.659-.272-.163-.583-.247-.925-.251-.342.004-.65.088-.925.251-.277.164-.494.382-.659.659-.16.273-.245.584-.25.926v9.566h-.003"/></g><g fill="#24336a"><path d="m62.61 57.61c0 .508-.403.896-.896.896-.508 0-.911-.389-.911-.896v-.492c-.583.82-1.404 1.479-2.689 1.479-1.853 0-3.659-1.479-3.659-4.094v-.029c0-2.615 1.777-4.094 3.659-4.094 1.3 0 2.121.643 2.689 1.391v-3.422c0-.508.403-.896.896-.896.508 0 .911.389.911.896v9.261m-6.334-3.136v.029c0 1.523 1.046 2.525 2.271 2.525 1.21 0 2.285-1.016 2.285-2.525v-.029c0-1.523-1.075-2.525-2.285-2.525-1.24-.0001-2.271.956-2.271 2.525"/><path d="m64.45 54.53v-.031c0-2.256 1.793-4.123 4.213-4.123s4.197 1.838 4.197 4.094v.029c0 2.24-1.793 4.109-4.228 4.109-2.404 0-4.182-1.838-4.182-4.078m6.603 0v-.031c0-1.389-1-2.539-2.42-2.539-1.449 0-2.375 1.135-2.375 2.51v.029c0 1.375 1 2.525 2.405 2.525 1.464 0 2.39-1.134 2.39-2.494"/><path d="m74.69 51.37c0-.508.388-.912.896-.912s.911.404.911.912v.807c.419-.986 1.195-1.732 1.987-1.732.567 0 .896.373.896.896 0 .477-.313.791-.717.865-1.285.225-2.167 1.211-2.167 3.078v2.33c0 .492-.403.896-.911.896-.492 0-.896-.389-.896-.896v-6.244z"/><path d="m80.86 51.37c0-.508.388-.912.896-.912s.911.404.911.912v.373c.509-.701 1.195-1.359 2.405-1.359 1.136 0 1.942.553 2.36 1.391.628-.838 1.464-1.391 2.659-1.391 1.718 0 2.764 1.092 2.764 3.02v4.213c0 .508-.389.896-.896.896s-.911-.389-.911-.896v-3.66c0-1.254-.583-1.926-1.599-1.926-.985 0-1.688.686-1.688 1.957v3.629c0 .508-.403.896-.896.896-.508 0-.911-.389-.911-.896v-3.674c0-1.227-.598-1.912-1.599-1.912s-1.688.746-1.688 1.957v3.629c0 .508-.403.896-.911.896-.492 0-.896-.389-.896-.896v-6.245"/><path d="m98.66 58.61c-2.285 0-4.048-1.658-4.048-4.094v-.029c0-2.256 1.599-4.109 3.854-4.109 2.509 0 3.749 2.063 3.749 3.885 0 .508-.389.865-.852.865h-4.944c.194 1.285 1.105 2 2.271 2 .762 0 1.359-.268 1.867-.686.135-.105.254-.166.463-.166.403 0 .718.314.718.732 0 .225-.105.418-.239.553-.717.643-1.613 1.047-2.839 1.047m1.793-4.675c-.119-1.166-.807-2.078-2-2.078-1.105 0-1.882.852-2.046 2.078h4.048"/><path d="m103.44 57.699v-.029c0-.344.119-.568.403-.867l4.197-4.779h-3.72c-.418 0-.747-.33-.747-.732 0-.418.329-.748.747-.748h5.198c.493 0 .867.299.867.717v.045c0 .344-.12.568-.389.867l-4.213 4.781h3.884c.419 0 .747.328.747.746 0 .402-.328.732-.747.732h-5.348c-.506 0-.879-.315-.879-.733"/><path d="m116.16 56.16v-.029c0-1.703 1.33-2.539 3.257-2.539.881 0 1.509.133 2.121.328v-.195c0-1.119-.688-1.717-1.957-1.717-.688 0-1.255.119-1.748.314-.104.029-.193.043-.283.043-.419 0-.762-.328-.762-.746 0-.328.224-.613.492-.717.747-.283 1.509-.463 2.54-.463 1.18 0 2.062.313 2.614.881.582.568.852 1.404.852 2.436v3.883c0 .494-.389.867-.882.867-.522 0-.881-.359-.881-.762v-.299c-.538.643-1.359 1.15-2.569 1.15-1.479.0001-2.794-.851-2.794-2.435m5.408-.566v-.539c-.464-.18-1.076-.313-1.793-.313-1.165 0-1.853.492-1.853 1.314v.029c0 .762.673 1.195 1.539 1.195 1.196.0001 2.107-.686 2.107-1.686"/><path d="m132.45 57.61c0 .492-.403.896-.911.896-.493 0-.911-.389-.911-.896v-.402c-.509.746-1.24 1.389-2.465 1.389-1.778 0-2.809-1.195-2.809-3.03v-4.197c0-.508.403-.912.896-.912.508 0 .911.404.911.912v3.66c0 1.225.612 1.912 1.688 1.912 1.046 0 1.778-.717 1.778-1.941v-3.631c0-.508.403-.912.911-.912.492 0 .911.404.911.912v6.243z"/><path d="m139.18 51.37c0-.508.388-.912.896-.912s.911.404.911.912v.373c.509-.701 1.195-1.359 2.405-1.359 1.136 0 1.942.553 2.36 1.391.628-.838 1.464-1.391 2.659-1.391 1.718 0 2.764 1.092 2.764 3.02v4.213c0 .508-.389.896-.896.896s-.911-.389-.911-.896v-3.66c0-1.254-.583-1.926-1.599-1.926-.985 0-1.688.686-1.688 1.957v3.629c0 .508-.403.896-.896.896-.508 0-.911-.389-.911-.896v-3.674c0-1.227-.598-1.912-1.599-1.912s-1.688.746-1.688 1.957v3.629c0 .508-.403.896-.911.896-.492 0-.896-.389-.896-.896v-6.245"/><path d="m156.98 58.61c-2.285 0-4.048-1.658-4.048-4.094v-.029c0-2.256 1.599-4.109 3.854-4.109 2.509 0 3.749 2.063 3.749 3.885 0 .508-.389.865-.852.865h-4.944c.194 1.285 1.105 2 2.271 2 .762 0 1.359-.268 1.867-.686.135-.105.254-.166.463-.166.403 0 .718.314.718.732 0 .225-.105.418-.239.553-.717.643-1.613 1.047-2.839 1.047m1.793-4.675c-.119-1.166-.807-2.078-2-2.078-1.105 0-1.882.852-2.046 2.078h4.048"/><path d="m162.36 48.42c0-.537.448-.881 1.03-.881.583 0 1.031.344 1.031.881v.09c0 .539-.448.896-1.031.896-.582 0-1.03-.357-1.03-.896v-.09m.135 2.943c0-.508.388-.912.896-.912.509 0 .912.404.912.912v6.244c0 .508-.403.896-.912.896-.492 0-.896-.389-.896-.896v-6.244"/><path d="m166.76 48.35c0-.492.388-.896.896-.896.509 0 .912.404.912.896v9.262c0 .508-.403.896-.912.896-.492 0-.896-.389-.896-.896v-9.262"/><path d="m171.03 48.35c0-.492.388-.896.896-.896.509 0 .912.404.912.896v9.262c0 .508-.403.896-.912.896-.492 0-.896-.389-.896-.896v-9.262"/><path d="m178.81 58.61c-2.285 0-4.048-1.658-4.048-4.094v-.029c0-2.256 1.599-4.109 3.854-4.109 2.509 0 3.749 2.063 3.749 3.885 0 .508-.389.865-.852.865h-4.944c.194 1.285 1.105 2 2.271 2 .762 0 1.359-.268 1.867-.686.135-.105.254-.166.463-.166.403 0 .718.314.718.732 0 .225-.105.418-.239.553-.716.643-1.613 1.047-2.839 1.047m1.793-4.675c-.119-1.166-.807-2.078-2-2.078-1.105 0-1.882.852-2.046 2.078h4.048"/><path d="m191.22 57.61c0 .492-.403.896-.911.896-.493 0-.911-.389-.911-.896v-.402c-.509.746-1.24 1.389-2.465 1.389-1.778 0-2.809-1.195-2.809-3.03v-4.197c0-.508.403-.912.896-.912.508 0 .911.404.911.912v3.66c0 1.225.612 1.912 1.688 1.912 1.046 0 1.778-.717 1.778-1.941v-3.631c0-.508.403-.912.911-.912.492 0 .911.404.911.912v6.243z"/><path d="m193.48 51.37c0-.508.388-.912.896-.912s.911.404.911.912v.807c.419-.986 1.195-1.732 1.987-1.732.567 0 .896.373.896.896 0 .477-.313.791-.717.865-1.285.225-2.167 1.211-2.167 3.078v2.33c0 .492-.403.896-.911.896-.492 0-.896-.389-.896-.896v-6.244z"/><path d="m204.12 51.37c0-.508.388-.912.896-.912s.911.404.911.912v.492c.583-.82 1.404-1.479 2.689-1.479 1.853 0 3.66 1.465 3.66 4.094v.029c0 2.615-1.793 4.094-3.66 4.094-1.314 0-2.137-.658-2.689-1.389v2.794c0 .508-.403.896-.911.896-.492 0-.896-.389-.896-.896v-8.635m6.318 3.137v-.029c0-1.523-1.03-2.525-2.256-2.525-1.225 0-2.3 1.016-2.3 2.525v.029c0 1.51 1.075 2.525 2.3 2.525 1.241 0 2.256-.97 2.256-2.525"/><path d="m214.14 51.37c0-.508.388-.912.896-.912s.911.404.911.912v.807c.419-.986 1.195-1.732 1.987-1.732.567 0 .896.373.896.896 0 .477-.313.791-.717.865-1.285.225-2.167 1.211-2.167 3.078v2.33c0 .492-.403.896-.911.896-.492 0-.896-.389-.896-.896v-6.244z"/><path d="m220.28 48.42c0-.537.448-.881 1.03-.881.583 0 1.031.344 1.031.881v.09c0 .539-.448.896-1.031.896-.582 0-1.03-.357-1.03-.896v-.09m.135 2.943c0-.508.388-.912.896-.912.509 0 .912.404.912.912v6.244c0 .508-.403.896-.912.896-.492 0-.896-.389-.896-.896v-6.244"/><path d="m224.41 57.12l2.241-2.689-2.076-2.465c-.194-.238-.299-.447-.299-.688 0-.508.388-.836.836-.836.358 0 .612.164.837.447l1.777 2.33 1.808-2.314c.209-.27.463-.463.777-.463.478 0 .851.344.851.791 0 .254-.104.434-.254.613l-2.136 2.555 2.211 2.613c.194.24.299.449.299.688 0 .508-.389.836-.837.836-.358 0-.612-.164-.836-.463l-1.912-2.465-1.912 2.465c-.21.254-.464.463-.792.463-.463 0-.837-.344-.837-.791 0-.254.09-.449.254-.627"/></g></svg>